<?xml version="1.0" standalone="no"?>
<!DOCTYPE svg PUBLIC "-//W3C//DTD SVG 20010904//EN"
 "http://www.w3.org/TR/2001/REC-SVG-20010904/DTD/svg10.dtd">
<svg version="1.0" xmlns="http://www.w3.org/2000/svg"
 width="440.000000pt" height="440.000000pt" viewBox="0 0 440.000000 440.000000"
 preserveAspectRatio="xMidYMid meet">

<g transform="translate(0.000000,440.000000) scale(0.100000,-0.100000)"
fill="#000000" stroke="none">
<path d="M820 3803 c334 -6 1379 -7 1358 -1 -13 3 -356 5 -763 5 -407 -1 -675
-3 -595 -4z"/>
<path d="M3128 3800 c442 -5 434 -4 430 -55 -1 -17 -1 -16 -5 3 -3 13 -15 27
-27 32 -37 14 -447 12 -465 -3 -12 -10 -13 -9 -7 1 6 10 -21 13 -141 11 -81
-1 -156 -6 -167 -12 -14 -7 -17 -6 -11 5 7 11 5 11 -6 0 -11 -10 -15 -72 -19
-295 l-6 -282 -1 284 c-1 156 -4 286 -7 289 -3 3 -6 -227 -6 -512 0 -561 1
-555 -56 -608 -47 -43 -87 -48 -409 -48 -323 0 -331 1 -369 53 -20 27 -21 41
-21 245 0 244 8 288 61 350 18 21 55 49 83 62 27 13 48 27 46 30 -2 3 93 5
210 5 195 0 215 2 234 19 21 19 30 43 12 32 -5 -4 -7 3 -4 14 3 11 10 17 16
13 17 -10 0 66 -28 123 -14 28 -44 75 -66 102 -41 53 -149 132 -178 132 -9 -1
-3 -7 14 -15 37 -17 25 -19 -26 -4 -30 10 -42 9 -54 -1 -13 -11 -16 -11 -13 0
2 11 -18 13 -97 12 -55 0 -100 -1 -100 -2 0 -1 -21 -2 -48 -3 -26 -1 -47 1
-47 4 0 3 -28 4 -62 2 -35 -2 -85 -4 -112 -3 -30 0 -53 -5 -58 -12 -6 -10 -8
-8 -8 4 0 14 -8 16 -42 12 -24 -2 -72 -5 -108 -5 -36 -1 -70 -5 -76 -10 -8 -6
-14 -4 -18 6 -3 9 -11 13 -17 10 -6 -4 -37 -7 -69 -6 -42 0 -60 -3 -64 -14 -3
-8 -11 -15 -18 -15 -9 0 -9 3 0 12 7 7 12 15 12 19 0 12 -49 7 -61 -7 -8 -10
-16 -11 -31 -3 -27 15 -43 6 -71 -39 -18 -28 -31 -38 -50 -37 -27 0 -50 14
-26 16 8 1 17 1 22 0 11 -2 9 17 -3 24 -6 4 -7 12 -3 18 4 7 0 6 -10 -2 -18
-15 -23 -26 -7 -16 16 10 12 -7 -5 -19 -12 -9 -12 -14 6 -36 11 -14 18 -20 15
-13 -10 18 16 28 26 9 5 -9 17 -16 26 -17 13 0 12 -3 -5 -11 -13 -6 -23 -15
-23 -21 0 -5 6 -4 14 2 11 9 16 9 22 0 4 -7 3 -9 -4 -5 -5 3 -12 2 -14 -4 -1
-5 -15 -11 -30 -12 -16 -1 -28 -8 -28 -16 0 -12 3 -12 15 -2 9 7 18 10 22 7 3
-4 14 -2 24 4 14 7 19 6 19 -4 0 -7 -8 -13 -17 -14 -10 0 -28 -3 -41 -6 -28
-7 -39 15 -24 48 17 37 -1 39 -62 5 -31 -16 -56 -26 -56 -22 0 4 -11 7 -24 7
-18 0 -22 -3 -14 -12 5 -6 16 -9 24 -6 7 3 17 -2 20 -11 9 -24 -2 -31 -23 -15
-10 7 -15 9 -10 4 9 -10 -21 -45 -40 -45 -10 0 -11 -5 -3 -19 13 -25 13 -34 0
-26 -5 3 -16 2 -24 -2 -12 -7 -12 -10 0 -21 8 -7 14 -8 14 -3 0 5 8 12 18 15
11 4 18 16 17 33 0 15 6 28 15 30 12 4 12 3 1 -5 -10 -8 -8 -13 10 -26 13 -9
19 -16 13 -16 -5 0 -15 5 -22 12 -9 9 -11 4 -8 -19 3 -20 0 -30 -10 -31 -50
-5 -67 -3 -84 13 -11 10 -23 15 -27 12 -3 -4 -1 -7 6 -7 7 0 11 -7 8 -14 -4
-10 -1 -13 7 -10 23 9 27 -12 7 -30 -15 -14 -17 -24 -11 -51 4 -20 4 -35 -1
-35 -5 0 -9 -5 -9 -11 0 -6 16 -10 38 -9 20 1 71 1 112 -1 l75 -3 -100 -6
c-89 -5 -80 -6 78 -8 117 -1 176 1 172 8 -4 6 3 8 17 6 13 -3 25 -5 28 -5 3
-1 -2 -6 -10 -11 -11 -7 -6 -10 20 -10 52 0 98 -33 122 -88 20 -44 21 -58 15
-267 -10 -338 -37 -770 -117 -1839 -17 -219 -30 -420 -30 -447 0 -82 -14 -79
436 -79 381 0 391 1 409 20 18 20 18 28 -4 288 -45 539 -51 609 -51 691 0 81
1 84 33 116 44 44 72 47 347 43 209 -3 228 -5 266 -25 55 -29 111 -93 124
-143 7 -26 10 -148 8 -349 -3 -360 3 -336 -118 -412 -41 -25 -83 -58 -94 -73
-28 -36 -26 -100 3 -129 22 -22 22 -22 651 -25 618 -2 630 -2 650 18 25 25 34
61 26 105 -7 38 -12 42 -129 116 -58 36 -82 58 -93 84 -12 29 -14 237 -14
1460 0 1412 0 1425 -20 1445 -19 19 -32 20 -427 18 l-408 -2 413 -6z m-1848
-66 c0 -11 -7 -13 -27 -8 -28 7 -28 7 -9 -15 24 -27 16 -27 -14 -1 -13 11 -18
20 -11 20 7 0 9 5 5 11 -5 9 1 10 21 5 26 -7 27 -6 14 11 -13 16 -12 17 4 4 9
-7 17 -20 17 -27z m371 19 c13 -16 12 -17 -3 -4 -10 7 -18 15 -18 17 0 8 8 3
21 -13z m-497 -5 c-5 -8 -2 -9 9 -5 9 3 19 3 21 -2 3 -4 -8 -7 -24 -7 -23 0
-27 2 -18 13 13 16 22 17 12 1z m326 -2 c0 -2 -9 -6 -20 -9 -11 -3 -18 -1 -14
4 5 9 34 13 34 5z m-393 -12 c-3 -3 -12 -4 -19 -1 -8 3 -5 6 6 6 11 1 17 -2
13 -5z m343 2 c0 -2 -7 -7 -16 -10 -8 -3 -12 -2 -9 4 6 10 25 14 25 6z m885
-14 c-3 -3 -11 0 -18 7 -9 10 -8 11 6 5 10 -3 15 -9 12 -12z m-1212 -7 c-3 -9
-8 -14 -10 -11 -3 3 -2 9 2 15 9 16 15 13 8 -4z m-38 -3 c-13 -9 -13 -32 -1
-31 9 1 26 -21 26 -34 0 -5 -7 -1 -16 7 -8 9 -22 16 -30 16 -8 0 -14 5 -14 10
0 6 5 10 10 10 6 0 9 3 9 8 -3 15 1 22 14 22 8 0 8 -3 2 -8z m81 -1 c-4 -5 -1
-12 4 -14 6 -3 5 -4 -2 -3 -15 3 -23 26 -8 26 6 0 9 -4 6 -9z m248 -12 c-6
-11 -24 -2 -24 11 0 5 7 7 15 4 8 -4 12 -10 9 -15z m2163 -31 c-2 -13 -4 -5
-4 17 -1 22 1 32 4 23 2 -10 2 -28 0 -40z m-2333 10 c-3 -4 2 -8 10 -8 8 0 17
-4 20 -9 4 -5 -3 -7 -14 -4 -11 3 -20 0 -20 -6 0 -6 -5 -11 -11 -11 -8 0 -7 6
2 16 12 14 11 16 -6 12 -11 -2 -19 -9 -18 -15 1 -6 -6 -9 -18 -6 -19 5 -17 8
13 22 22 10 33 22 31 31 -4 13 -3 13 6 0 5 -8 7 -18 5 -22z m1151 -4 c21 -27
25 -38 15 -47 -9 -9 -11 -8 -8 3 2 8 -3 14 -10 12 -8 -1 -11 2 -7 8 3 5 1 10
-6 10 -7 0 -9 3 -6 7 4 3 0 15 -10 25 -9 10 -11 18 -6 18 6 0 23 -16 38 -36z
m-945 -18 c0 -2 -7 -7 -16 -10 -8 -3 -12 -2 -9 4 6 10 25 14 25 6z m-480 -36
c-14 -19 -27 -27 -38 -24 -12 4 -11 2 3 -7 22 -14 35 -29 35 -43 0 -5 -8 1
-19 12 -21 25 -33 29 -25 8 3 -8 1 -23 -5 -33 -8 -14 -9 -11 -7 17 4 42 -3 57
-16 39 -8 -12 -9 -12 -6 0 2 8 15 21 28 30 14 10 21 11 16 4 -5 -9 -1 -13 10
-13 10 0 14 3 11 7 -8 7 11 33 25 33 5 0 0 -13 -12 -30z m187 8 c2 -17 0 -19
-7 -8 -5 8 -6 18 -4 22 8 12 10 10 11 -14z m250 1 c2 -16 -1 -19 -9 -11 -5 5
-7 15 -4 21 10 15 12 14 13 -10z m-289 -13 c-10 -7 -18 -21 -18 -30 0 -10 -4
-15 -9 -11 -6 3 -9 14 -8 25 1 10 4 17 7 15 3 -2 12 0 20 6 22 13 27 10 8 -5z
m157 5 c3 -5 2 -12 -3 -15 -5 -3 -9 1 -9 9 0 17 3 19 12 6z m1191 -46 c14 -25
24 -48 21 -51 -3 -3 -17 17 -31 45 -33 63 -26 67 10 6z m1111 -57 c-2 -18 -4
-6 -4 27 0 33 2 48 4 33 2 -15 2 -42 0 -60z m-2552 28 c17 -13 17 -13 -11 -13
-16 0 -23 2 -15 5 11 4 11 6 0 13 -8 5 -9 9 -3 9 5 0 19 -6 29 -14z m-148 -18
c-3 -8 -6 -5 -6 6 -1 11 2 17 5 13 3 -3 4 -12 1 -19z m533 12 c0 -5 -2 -10 -4
-10 -3 0 -8 5 -11 10 -3 6 -1 10 4 10 6 0 11 -4 11 -10z m-383 -42 c-3 -8 -6
-5 -6 6 -1 11 2 17 5 13 3 -3 4 -12 1 -19z m2550 -55 c-3 -10 -5 -4 -5 12 0
17 2 24 5 18 2 -7 2 -21 0 -30z m-2790 -28 c0 -8 -4 -12 -9 -9 -5 3 -6 10 -3
15 9 13 12 11 12 -6z m1243 -60 c0 -2 -13 -11 -30 -20 -38 -19 -40 -11 -2 9
31 17 32 18 32 11z m-987 -52 c-18 -2 -48 -2 -65 0 -18 2 -4 4 32 4 36 0 50
-2 33 -4z m218 -50 c13 -16 12 -17 -3 -4 -10 7 -18 15 -18 17 0 8 8 3 21 -13z
m1466 -105 c-2 -13 -4 -5 -4 17 -1 22 1 32 4 23 2 -10 2 -28 0 -40z m-1419
-98 c-1 -118 -6 -101 -10 37 -2 50 0 86 4 80 4 -7 7 -59 6 -117z m1419 -52
c-2 -24 -4 -5 -4 42 0 47 2 66 4 43 2 -24 2 -62 0 -85z m0 -90 c-3 -7 -5 -2
-5 12 0 14 2 19 5 13 2 -7 2 -19 0 -25z m-1420 -10 c-3 -7 -5 -2 -5 12 0 14 2
19 5 13 2 -7 2 -19 0 -25z m1933 -518 c0 -82 -1 -150 -2 -150 -2 0 -70 68
-152 150 l-150 150 152 0 152 0 0 -150z m-290 -272 l-1 -163 -142 146 c-78 80
-148 153 -156 162 -12 16 -2 17 143 17 l156 0 0 -162z m-286 -104 c8 -22 6
-225 -3 -247 -6 -17 -12 -15 -56 21 -28 22 -95 85 -150 141 l-100 101 152 0
c128 0 152 -2 157 -16z"/>
<path d="M645 3789 c-4 -6 -5 -12 -2 -15 2 -3 7 2 10 11 7 17 1 20 -8 4z"/>
<path d="M766 3777 c3 -10 9 -15 12 -12 3 3 0 11 -7 18 -10 9 -11 8 -5 -6z"/>
<path d="M845 3770 c3 -5 8 -10 11 -10 2 0 4 5 4 10 0 6 -5 10 -11 10 -5 0 -7
-4 -4 -10z"/>
<path d="M875 3770 c-3 -5 -1 -10 4 -10 6 0 11 5 11 10 0 6 -2 10 -4 10 -3 0
-8 -4 -11 -10z"/>
<path d="M920 3775 c0 -8 29 -12 39 -5 9 5 4 8 -13 8 -14 0 -26 -2 -26 -3z"/>
<path d="M632 3549 c-2 -183 0 -218 14 -235 8 -10 12 -12 7 -4 -4 8 -10 114
-13 235 l-6 220 -2 -216z"/>
<path d="M905 3710 c-4 -6 -4 -14 -1 -17 3 -4 6 0 6 7 0 9 5 7 14 -6 8 -10 16
-17 19 -14 2 3 -4 13 -13 23 -13 13 -20 15 -25 7z"/>
<path d="M846 3688 c7 -11 34 -10 34 1 0 6 -9 9 -19 8 -11 0 -17 -5 -15 -9z"/>
<path d="M808 3683 c7 -3 16 -2 19 1 4 3 -2 6 -13 5 -11 0 -14 -3 -6 -6z"/>
<path d="M882 3663 c-20 -14 -25 -14 -33 -2 -5 8 -9 9 -9 3 0 -6 6 -17 14 -23
11 -9 17 -8 29 3 8 8 18 12 22 8 5 -4 5 -2 2 5 -4 6 -1 14 5 16 7 3 9 6 3 6
-5 0 -20 -7 -33 -16z"/>
<path d="M777 3603 c-14 -13 -7 -23 16 -22 17 1 18 2 4 6 -9 2 -15 9 -12 14 7
10 1 12 -8 2z"/>
<path d="M724 3575 c-4 -8 -11 -12 -17 -8 -6 3 -7 1 -3 -5 9 -15 33 -5 33 13
0 19 -6 19 -13 0z"/>
<path d="M742 3519 c-2 -18 2 -28 8 -24 5 3 8 15 7 25 -5 32 -13 31 -15 -1z"/>
<path d="M665 3520 c-3 -5 1 -10 9 -10 9 0 16 5 16 10 0 6 -4 10 -9 10 -6 0
-13 -4 -16 -10z"/>
<path d="M669 3458 c-7 -13 -4 -46 3 -42 4 3 5 10 2 16 -4 6 0 14 7 19 10 6
11 9 2 9 -7 0 -14 -1 -14 -2z"/>
<path d="M673 3379 c4 -15 2 -19 -9 -15 -9 3 -12 1 -9 -4 3 -6 15 -10 26 -10
16 0 18 3 10 19 -6 10 -7 21 -4 25 3 3 1 6 -6 6 -9 0 -11 -8 -8 -21z"/>
<path d="M678 3293 c7 -3 16 -2 19 1 4 3 -2 6 -13 5 -11 0 -14 -3 -6 -6z"/>
</g>
</svg>
